<svg width="36" height="36" viewBox="0 0 36 36" fill="none" xmlns="http://www.w3.org/2000/svg">
<path d="M34.1532 8.35283C33.6102 7.10966 32.8271 5.98311 31.848 5.03624C30.8681 4.08654 29.7127 3.33184 28.4448 2.81316C27.13 2.27318 25.7199 1.99679 24.2962 2.00003C22.2989 2.00003 20.3501 2.54078 18.6567 3.56219C18.2515 3.80653 17.8666 4.0749 17.502 4.36731C17.1374 4.0749 16.7525 3.80653 16.3474 3.56219C14.6539 2.54078 12.7052 2.00003 10.7078 2.00003C9.26958 2.00003 7.8759 2.27241 6.5592 2.81316C5.28706 3.33388 4.14052 4.08292 3.15603 5.03624C2.17558 5.98204 1.39237 7.10886 0.850792 8.35283C0.287649 9.64663 0 11.0205 0 12.4345C0 13.7683 0.275495 15.1583 0.822432 16.5722C1.28024 17.7539 1.93656 18.9796 2.7752 20.2173C4.10406 22.176 5.93123 24.2188 8.20001 26.2897C11.9597 29.7225 15.6829 32.0937 15.8409 32.1899L16.8011 32.7987C17.2265 33.0671 17.7734 33.0671 18.1988 32.7987L19.159 32.1899C19.317 32.0897 23.0362 29.7225 26.7999 26.2897C29.0687 24.2188 30.8959 22.176 32.2248 20.2173C33.0634 18.9796 33.7238 17.7539 34.1775 16.5722C34.7245 15.1583 35 13.7683 35 12.4345C35.004 11.0205 34.7164 9.64663 34.1532 8.35283Z" fill="#FF7875"/>
</svg>
