<svg width="12" height="12" viewBox="0 0 12 12" fill="none" xmlns="http://www.w3.org/2000/svg">
<path d="M10.3135 5.42861C10.0535 4.84342 9.67555 4.31818 9.20326 3.88575L8.81353 3.52816C8.80029 3.51636 8.78437 3.50798 8.76714 3.50376C8.74991 3.49954 8.73192 3.49962 8.71473 3.50399C8.69754 3.50835 8.68168 3.51687 8.66855 3.52879C8.65542 3.54071 8.64542 3.55567 8.63942 3.57236L8.46531 4.07191C8.35683 4.38531 8.15728 4.7054 7.87469 5.02013C7.85594 5.04022 7.83451 5.04558 7.81978 5.04692C7.80505 5.04825 7.78228 5.04558 7.76219 5.02683C7.74344 5.01075 7.73406 4.98665 7.7354 4.96254C7.78496 4.15629 7.54388 3.24691 7.01621 2.25718C6.5796 1.43486 5.9729 0.793343 5.21487 0.346022L4.66174 0.0205756C4.58942 -0.0222815 4.49701 0.0339684 4.50103 0.118343L4.53049 0.761201C4.55058 1.20049 4.49969 1.58888 4.37915 1.91165C4.23183 2.30674 4.02022 2.6737 3.74969 3.00316C3.56141 3.23213 3.34802 3.43923 3.11353 3.62058C2.54876 4.05473 2.08953 4.61102 1.77022 5.24781C1.4517 5.89015 1.28579 6.59735 1.2854 7.31432C1.2854 7.94647 1.40995 8.55852 1.65638 9.13575C1.89433 9.69151 2.23771 10.1959 2.66754 10.621C3.10147 11.0496 3.60504 11.3871 4.1662 11.6215C4.74745 11.8652 5.36353 11.9884 5.99969 11.9884C6.63585 11.9884 7.25192 11.8652 7.83317 11.6228C8.39295 11.3898 8.90198 11.05 9.33183 10.6224C9.76576 10.1938 10.1059 9.6929 10.343 9.13709C10.589 8.56144 10.7153 7.9417 10.714 7.31566C10.714 6.66209 10.58 6.02727 10.3135 5.42861ZM8.69165 9.97281C7.97246 10.6853 7.01754 11.0764 5.99969 11.0764C4.98183 11.0764 4.02692 10.6853 3.30772 9.97281C2.5912 9.26165 2.19611 8.31879 2.19611 7.31566C2.19611 6.73307 2.32737 6.17459 2.58585 5.65495C2.83763 5.14736 3.21263 4.69334 3.66799 4.34379C3.9584 4.12173 4.2218 3.86642 4.45281 3.58308C4.78763 3.17459 5.05013 2.71924 5.23228 2.2304C5.30699 2.02875 5.36128 1.82012 5.39433 1.60763C5.7171 1.90495 5.98763 2.26388 6.21397 2.68441C6.66129 3.52281 6.86754 4.26879 6.82737 4.90361C6.81777 5.05312 6.84219 5.20287 6.89879 5.34159C6.95539 5.4803 7.0427 5.60438 7.15415 5.7045C7.25074 5.79175 7.3637 5.85894 7.48647 5.90216C7.60925 5.94539 7.73939 5.96379 7.86933 5.95629C8.13317 5.9429 8.37558 5.82638 8.55237 5.6295C8.73049 5.42995 8.88451 5.22638 9.01308 5.01879C9.20058 5.25852 9.35728 5.51968 9.48183 5.80093C9.69478 6.2804 9.80326 6.79066 9.80326 7.31566C9.80326 8.31879 9.40817 9.26299 8.69165 9.97281Z" fill="#613400"/>
</svg>
