<svg width="20" height="20" viewBox="0 0 20 20" fill="none" xmlns="http://www.w3.org/2000/svg">
<path d="M12.3579 0.181549C8.23534 0.181549 4.8936 3.52329 4.8936 7.64584C4.8936 9.37195 5.48043 10.9606 6.46257 12.2251L5.45342 13.2342L3.92373 11.7045C3.88634 11.6679 3.8361 11.6475 3.78378 11.6475C3.73146 11.6475 3.68122 11.6679 3.64382 11.7045L2.66659 12.6818C2.63 12.7192 2.60951 12.7694 2.60951 12.8217C2.60951 12.874 2.63 12.9243 2.66659 12.9617L4.19628 14.4914L3.09382 15.5938L1.56414 14.0641C1.52674 14.0275 1.4765 14.0071 1.42418 14.0071C1.37186 14.0071 1.32162 14.0275 1.28422 14.0641L0.306993 15.0414C0.270401 15.0788 0.24991 15.129 0.24991 15.1813C0.24991 15.2336 0.270401 15.2839 0.306993 15.3213L1.83668 16.851L0.233332 18.4543C0.196776 18.4912 0.17627 18.5411 0.17627 18.593C0.17627 18.645 0.196776 18.6949 0.233332 18.7318L1.27195 19.7704C1.34806 19.8465 1.47329 19.8465 1.5494 19.7704L7.77619 13.5436C9.08697 14.5603 10.699 15.1115 12.3579 15.1101C16.4804 15.1101 19.8222 11.7684 19.8222 7.64584C19.8222 3.52329 16.4804 0.181549 12.3579 0.181549ZM16.3159 11.6039C15.2601 12.6621 13.8532 13.2441 12.3579 13.2441C10.8626 13.2441 9.45565 12.6621 8.39985 11.6039C7.34159 10.5481 6.75967 9.14115 6.75967 7.64584C6.75967 6.15052 7.34159 4.7436 8.39985 3.6878C9.45565 2.62954 10.8626 2.04762 12.3579 2.04762C13.8532 2.04762 15.2601 2.62954 16.3159 3.6878C17.3742 4.7436 17.9561 6.15052 17.9561 7.64584C17.9561 9.14115 17.3742 10.5481 16.3159 11.6039Z" fill="#613400"/>
</svg>
