<svg width="4" height="25" viewBox="0 0 4 25" fill="none" xmlns="http://www.w3.org/2000/svg">
<path d="M0 2.96863C0 3.49906 0.210713 4.00777 0.585786 4.38284C0.960859 4.75791 1.46957 4.96863 2 4.96863C2.53043 4.96863 3.03914 4.75791 3.41421 4.38284C3.78929 4.00777 4 3.49906 4 2.96863C4 2.43819 3.78929 1.92949 3.41421 1.55441C3.03914 1.17934 2.53043 0.968628 2 0.968628C1.46957 0.968628 0.960859 1.17934 0.585786 1.55441C0.210713 1.92949 0 2.43819 0 2.96863ZM0 12.9686C0 13.4991 0.210713 14.0078 0.585786 14.3828C0.960859 14.7579 1.46957 14.9686 2 14.9686C2.53043 14.9686 3.03914 14.7579 3.41421 14.3828C3.78929 14.0078 4 13.4991 4 12.9686C4 12.4382 3.78929 11.9295 3.41421 11.5544C3.03914 11.1793 2.53043 10.9686 2 10.9686C1.46957 10.9686 0.960859 11.1793 0.585786 11.5544C0.210713 11.9295 0 12.4382 0 12.9686ZM0 22.9686C0 23.4991 0.210713 24.0078 0.585786 24.3828C0.960859 24.7579 1.46957 24.9686 2 24.9686C2.53043 24.9686 3.03914 24.7579 3.41421 24.3828C3.78929 24.0078 4 23.4991 4 22.9686C4 22.4382 3.78929 21.9295 3.41421 21.5544C3.03914 21.1793 2.53043 20.9686 2 20.9686C1.46957 20.9686 0.960859 21.1793 0.585786 21.5544C0.210713 21.9295 0 22.4382 0 22.9686Z" fill="#613400"/>
</svg>
