<svg width="100" height="100" viewBox="0 0 100 100" fill="none" xmlns="http://www.w3.org/2000/svg">
<path d="M53.3474 9.82666H46.6509C46.0557 9.82666 45.7581 10.1243 45.7581 10.7195V45.7642H12.5017C11.9065 45.7642 11.6089 46.0618 11.6089 46.657V53.3535C11.6089 53.9487 11.9065 54.2463 12.5017 54.2463H45.7581V89.291C45.7581 89.8862 46.0557 90.1838 46.6509 90.1838H53.3474C53.9426 90.1838 54.2402 89.8862 54.2402 89.291V54.2463H87.5018C88.097 54.2463 88.3946 53.9487 88.3946 53.3535V46.657C88.3946 46.0618 88.097 45.7642 87.5018 45.7642H54.2402V10.7195C54.2402 10.1243 53.9426 9.82666 53.3474 9.82666Z" fill="#3E1700" fill-opacity="0.5"/>
</svg>
