<svg width="20" height="20" viewBox="0 0 20 20" fill="none" xmlns="http://www.w3.org/2000/svg">
<path d="M10.6695 1.96436H9.33018C9.21113 1.96436 9.15161 2.02388 9.15161 2.14293V9.15186H2.50035C2.3813 9.15186 2.32178 9.21138 2.32178 9.33043V10.6697C2.32178 10.7888 2.3813 10.8483 2.50035 10.8483H9.15161V17.8572C9.15161 17.9763 9.21113 18.0358 9.33018 18.0358H10.6695C10.7885 18.0358 10.848 17.9763 10.848 17.8572V10.8483H17.5003C17.6194 10.8483 17.6789 10.7888 17.6789 10.6697V9.33043C17.6789 9.21138 17.6194 9.15186 17.5003 9.15186H10.848V2.14293C10.848 2.02388 10.7885 1.96436 10.6695 1.96436Z" fill="black" fill-opacity="0.85"/>
</svg>
