<svg width="20" height="20" viewBox="0 0 20 20" fill="none" xmlns="http://www.w3.org/2000/svg">
<path d="M10 0.375C4.68477 0.375 0.375 4.68477 0.375 10C0.375 15.3152 4.68477 19.625 10 19.625C15.3152 19.625 19.625 15.3152 19.625 10C19.625 4.68477 15.3152 0.375 10 0.375ZM10 17.9922C5.58711 17.9922 2.00781 14.4129 2.00781 10C2.00781 5.58711 5.58711 2.00781 10 2.00781C14.4129 2.00781 17.9922 5.58711 17.9922 10C17.9922 14.4129 14.4129 17.9922 10 17.9922Z" fill="#613400"/>
<path d="M12.3973 5.80343C11.7528 5.23839 10.902 4.92902 9.99966 4.92902C9.09732 4.92902 8.24654 5.24054 7.60201 5.80343C6.9317 6.38995 6.56216 7.17843 6.56216 8.02277V8.18605C6.56216 8.28058 6.63951 8.35792 6.73404 8.35792H7.76529C7.85982 8.35792 7.93716 8.28058 7.93716 8.18605V8.02277C7.93716 7.07531 8.86314 6.30402 9.99966 6.30402C11.1362 6.30402 12.0622 7.07531 12.0622 8.02277C12.0622 8.69093 11.5895 9.30324 10.8569 9.58468C10.4014 9.7587 10.0147 10.0638 9.73756 10.4634C9.45611 10.8716 9.31002 11.3614 9.31002 11.8577V12.3196C9.31002 12.4142 9.38736 12.4915 9.48189 12.4915H10.5131C10.6077 12.4915 10.685 12.4142 10.685 12.3196V11.8319C10.6861 11.6234 10.7501 11.42 10.8685 11.2483C10.9869 11.0766 11.1543 10.9446 11.3489 10.8694C12.6165 10.3818 13.435 9.26456 13.435 8.02277C13.4372 7.17843 13.0676 6.38995 12.3973 5.80343ZM9.14029 14.7259C9.14029 14.9538 9.23083 15.1724 9.39199 15.3336C9.55316 15.4947 9.77174 15.5853 9.99966 15.5853C10.2276 15.5853 10.4462 15.4947 10.6073 15.3336C10.7685 15.1724 10.859 14.9538 10.859 14.7259C10.859 14.498 10.7685 14.2794 10.6073 14.1182C10.4462 13.9571 10.2276 13.8665 9.99966 13.8665C9.77174 13.8665 9.55316 13.9571 9.39199 14.1182C9.23083 14.2794 9.14029 14.498 9.14029 14.7259Z" fill="#613400"/>
</svg>
