<svg width="13" height="13" viewBox="0 0 13 13" fill="none" xmlns="http://www.w3.org/2000/svg">
<path d="M10.9641 8.64761C10.4891 8.64761 10.0508 8.80067 9.70745 9.05628L6.25411 6.76189C6.31194 6.47041 6.31194 6.17174 6.25411 5.88026L9.70745 3.58587C10.0508 3.84148 10.4891 3.99454 10.9641 3.99454C12.0674 3.99454 12.9641 3.17108 12.9641 2.15781C12.9641 1.14454 12.0674 0.321075 10.9641 0.321075C9.86078 0.321075 8.96411 1.14454 8.96411 2.15781C8.96411 2.33536 8.99078 2.50526 9.04245 2.6675L5.76244 4.84863C5.27578 4.25628 4.50244 3.8721 3.63078 3.8721C2.15744 3.8721 0.964111 4.96801 0.964111 6.32108C0.964111 7.67414 2.15744 8.77005 3.63078 8.77005C4.50244 8.77005 5.27578 8.38587 5.76244 7.79352L9.04245 9.97465C8.99078 10.1369 8.96411 10.3083 8.96411 10.4843C8.96411 11.4976 9.86078 12.3211 10.9641 12.3211C12.0674 12.3211 12.9641 11.4976 12.9641 10.4843C12.9641 9.47108 12.0674 8.64761 10.9641 8.64761ZM10.9641 1.36189C11.4424 1.36189 11.8308 1.71852 11.8308 2.15781C11.8308 2.5971 11.4424 2.95373 10.9641 2.95373C10.4858 2.95373 10.0974 2.5971 10.0974 2.15781C10.0974 1.71852 10.4858 1.36189 10.9641 1.36189ZM3.63078 7.66801C2.82244 7.66801 2.16411 7.06342 2.16411 6.32108C2.16411 5.57873 2.82244 4.97414 3.63078 4.97414C4.43911 4.97414 5.09745 5.57873 5.09745 6.32108C5.09745 7.06342 4.43911 7.66801 3.63078 7.66801ZM10.9641 11.2803C10.4858 11.2803 10.0974 10.9236 10.0974 10.4843C10.0974 10.0451 10.4858 9.68842 10.9641 9.68842C11.4424 9.68842 11.8308 10.0451 11.8308 10.4843C11.8308 10.9236 11.4424 11.2803 10.9641 11.2803Z" fill="#613400"/>
</svg>
