<svg width="22" height="20" viewBox="0 0 22 20" fill="none" xmlns="http://www.w3.org/2000/svg">
<path d="M20.7259 7.10023L14.4917 6.19421L11.7049 0.544431C11.6288 0.389744 11.5036 0.26452 11.3489 0.188404C10.9609 -0.00311351 10.4895 0.156485 10.2955 0.544431L7.50868 6.19421L1.27453 7.10023C1.10266 7.12479 0.945515 7.20581 0.825203 7.32858C0.679752 7.47808 0.599602 7.67921 0.602364 7.88777C0.605126 8.09633 0.690575 8.29527 0.839935 8.44086L5.35043 12.8384L4.2848 19.048C4.25981 19.1925 4.2758 19.341 4.33094 19.4768C4.38609 19.6127 4.47819 19.7303 4.5968 19.8165C4.71541 19.9026 4.85579 19.9538 5.00201 19.9642C5.14823 19.9747 5.29445 19.9439 5.42409 19.8755L11.0002 16.9438L16.5763 19.8755C16.7286 19.9565 16.9053 19.9835 17.0748 19.954C17.502 19.8804 17.7893 19.4752 17.7156 19.048L16.65 12.8384L21.1605 8.44086C21.2832 8.32055 21.3643 8.1634 21.3888 7.99153C21.4551 7.56184 21.1556 7.16407 20.7259 7.10023V7.10023ZM14.752 12.2197L15.6384 17.3833L11.0002 14.9476L6.36203 17.3857L7.24842 12.2221L3.49663 8.56363L8.68235 7.80983L11.0002 3.11273L13.3181 7.80983L18.5038 8.56363L14.752 12.2197Z" fill="#613400"/>
</svg>
