<svg width="20" height="20" viewBox="0 0 20 20" fill="none" xmlns="http://www.w3.org/2000/svg">
<path d="M18.5071 16.1747C18.0439 15.0776 17.3718 14.081 16.5281 13.2406C15.687 12.3977 14.6906 11.7256 13.5939 11.2615C13.5841 11.2566 13.5743 11.2542 13.5645 11.2493C15.0942 10.1443 16.0886 8.34457 16.0886 6.31399C16.0886 2.95015 13.3631 0.224701 9.99929 0.224701C6.63545 0.224701 3.91001 2.95015 3.91001 6.31399C3.91001 8.34457 4.90443 10.1443 6.43412 11.2517C6.42429 11.2566 6.41447 11.2591 6.40465 11.264C5.30465 11.7281 4.3176 12.3935 3.4705 13.243C2.6276 14.0841 1.95555 15.0805 1.49148 16.1772C1.03558 17.2508 0.789696 18.4018 0.767151 19.568C0.766496 19.5942 0.771092 19.6203 0.78067 19.6447C0.790248 19.6691 0.804613 19.6913 0.822918 19.7101C0.841224 19.7289 0.8631 19.7438 0.887258 19.7539C0.911416 19.7641 0.937366 19.7694 0.96358 19.7693H2.43679C2.54483 19.7693 2.63077 19.6834 2.63322 19.5778C2.68233 17.6823 3.44349 15.9071 4.78903 14.5615C6.18121 13.1693 8.0301 12.4033 9.99929 12.4033C11.9685 12.4033 13.8174 13.1693 15.2096 14.5615C16.5551 15.9071 17.3163 17.6823 17.3654 19.5778C17.3678 19.6859 17.4538 19.7693 17.5618 19.7693H19.035C19.0612 19.7694 19.0872 19.7641 19.1113 19.7539C19.1355 19.7438 19.1574 19.7289 19.1757 19.7101C19.194 19.6913 19.2083 19.6691 19.2179 19.6447C19.2275 19.6203 19.2321 19.5942 19.2314 19.568C19.2069 18.3943 18.9638 17.2526 18.5071 16.1747V16.1747ZM9.99929 10.5372C8.87229 10.5372 7.81157 10.0977 7.01358 9.2997C6.21559 8.50171 5.77608 7.441 5.77608 6.31399C5.77608 5.18698 6.21559 4.12626 7.01358 3.32827C7.81157 2.53028 8.87229 2.09077 9.99929 2.09077C11.1263 2.09077 12.187 2.53028 12.985 3.32827C13.783 4.12626 14.2225 5.18698 14.2225 6.31399C14.2225 7.441 13.783 8.50171 12.985 9.2997C12.187 10.0977 11.1263 10.5372 9.99929 10.5372Z" fill="#613400"/>
</svg>
