<svg width="21" height="20" viewBox="0 0 21 20" fill="none" xmlns="http://www.w3.org/2000/svg">
<path d="M9.82258 0.965778H2.35829C2.14222 0.965778 1.96544 1.14256 1.96544 1.35864V8.82292C1.96544 9.03899 2.14222 9.21578 2.35829 9.21578H9.82258C10.0387 9.21578 10.2154 9.03899 10.2154 8.82292V1.35864C10.2154 1.14256 10.0387 0.965778 9.82258 0.965778ZM8.5458 7.54614H3.63508V2.63542H8.5458V7.54614ZM19.644 0.965778H12.1797C11.9637 0.965778 11.7869 1.14256 11.7869 1.35864V8.82292C11.7869 9.03899 11.9637 9.21578 12.1797 9.21578H19.644C19.8601 9.21578 20.0369 9.03899 20.0369 8.82292V1.35864C20.0369 1.14256 19.8601 0.965778 19.644 0.965778ZM18.3672 7.54614H13.4565V2.63542H18.3672V7.54614ZM19.644 10.7872H12.1797C11.9637 10.7872 11.7869 10.964 11.7869 11.1801V18.6444C11.7869 18.8604 11.9637 19.0372 12.1797 19.0372H19.644C19.8601 19.0372 20.0369 18.8604 20.0369 18.6444V11.1801C20.0369 10.964 19.8601 10.7872 19.644 10.7872ZM18.3672 17.3676H13.4565V12.4569H18.3672V17.3676ZM8.84044 14.9122H5.69758V11.7694C5.69758 11.6613 5.60919 11.5729 5.50115 11.5729H4.32258C4.21454 11.5729 4.12615 11.6613 4.12615 11.7694V14.9122H0.983294C0.875258 14.9122 0.786865 15.0006 0.786865 15.1086V16.2872C0.786865 16.3952 0.875258 16.4836 0.983294 16.4836H4.12615V19.6265C4.12615 19.7345 4.21454 19.8229 4.32258 19.8229H5.50115C5.60919 19.8229 5.69758 19.7345 5.69758 19.6265V16.4836H8.84044C8.94847 16.4836 9.03687 16.3952 9.03687 16.2872V15.1086C9.03687 15.0006 8.94847 14.9122 8.84044 14.9122Z" fill="#613400"/>
</svg>
